{"title":"32 Czas honoru S03E06 XviD","uid":5893884,"size":398998993,"categoryP":"video","categoryS":"tv_shows","magnet":"?xt=urn:btih:de95acada1962149de648d74821f53b9a28e51f9&amp;dn=32+Czas+honoru+S03E06+XviD&amp;tr=udp%3A%2F%2Ftracker.openbittorrent.com%3A80&amp;tr=udp%3A%2F%2Fopen.demonii.com%3A1337&amp;tr=udp%3A%2F%2Ftracker.coppersurfer.tk%3A6969&amp;tr=udp%3A%2F%2Fexodus.desync.com%3A6969","seeders":0,"leechers":0,"uploader":"kisielm","files":2,"time":1287379622,"description":"Format                           : AVI\nFormat/Info                      : Audio Video Interleave\nFile size                        : 381 MiB\nDuration                         : 44mn 59s\nOverall bit rate                 : 1 182 Kbps\n\nVideo\nFormat                           : MPEG-4 Visual\nFormat profile                   : Simple@L3\nFormat settings, BVOP            : No\nFormat settings, QPel            : No\nFormat settings, GMC             : No warppoints\nFormat settings, Matrix          : Default (H.263)\nCodec ID                         : XVID\nBit rate                         : 1 041 Kbps\nWidth                            : 720 pixels\nHeight                           : 576 pixels\nDisplay aspect ratio             : 16:9\nFrame rate                       : 25.000 fps\nStandard                         : PAL\nColor space                      : YUV\nChroma subsampling               : 4:2:0\nBit depth                        : 8 bits\nScan type                        : Progressive\nBits/(Pixel*Frame)               : 0.100\nStream size                      : 335 MiB (88%)\n\nAudio\nFormat                           : MPEG Audio\nFormat version                   : Version 1\nFormat profile                   : Layer 3\nMode                             : Joint stereo\nCodec ID/Hint                    : MP3\nBit rate mode                    : Constant\nBit rate                         : 128 Kbps\nChannel(s)                       : 2 channels\nSampling rate                    : 48.0 KHz\nStream size                      : 41.2 MiB (11%)\nAlignment                        : Aligned on interleaves\nInterleave, duration             : 24 ms (0.60 video frame)","torrent":{"xt":"urn:btih:de95acada1962149de648d74821f53b9a28e51f9","amp;dn":"32+Czas+honoru+S03E06+XviD","amp;tr":["udp%3A%2F%2Ftracker.openbittorrent.com%3A80","udp%3A%2F%2Fopen.demonii.com%3A1337","udp%3A%2F%2Ftracker.coppersurfer.tk%3A6969","udp%3A%2F%2Fexodus.desync.com%3A6969"],"infoHash":"de95acada1962149de648d74821f53b9a28e51f9","infoHashBuffer":{"type":"Buffer","data":[222,149,172,173,161,150,33,73,222,100,141,116,130,31,83,185,162,142,81,249]},"announce":[],"urlList":[]}}